<?xml version="1.0" encoding="UTF-8"?>
<svg id="Layer_1" data-name="Layer 1" xmlns="http://www.w3.org/2000/svg" viewBox="0 0 1889.8 783.4">
  <defs>
    <style>
      .cls-1 {
        fill: #fff;
      }
    </style>
  </defs>
  <g>
    <path class="cls-1" d="m271.08,500.77c2.27,1.91,4.13,3.48,5.98,5.05,7.31,6.21,14.48,12.6,21.99,18.55,3.73,2.96,7.44,6.03,11.59,8.49,2.13,1.26,3.91,3.12,5.92,4.61,14.18,10.6,28.84,20.47,43.77,29.99,12.78,8.15,25.9,15.72,39.2,22.93,12.33,6.68,24.98,12.76,37.8,18.52,14.77,6.64,29.71,12.79,45.08,17.78,14.85,4.82,29.87,9.12,45.19,12.45,19.63,4.27,39.37,7.15,59.43,8.05,25.71,1.16,51.2-.27,76.52-5.3,12.27-2.44,24.27-5.74,36.08-9.68,5.95-1.98,11.96-3.99,17.72-6.71,2.95-1.39,6.1-2.78,9.29-3.86,5.44-1.84,6.29-4.4,2.46-8.51-6.86-7.37-13.9-14.6-21.2-21.54-9.29-8.82-18.84-17.36-28.4-25.89-11.92-10.64-23.9-21.19-35.94-31.69-12.29-10.71-24.68-21.3-37.03-31.94-.83-.71-1.88-1.25-2.52-2.09-3.58-4.74-8.39-4.85-13.75-4.38-32.8,2.85-65.67,2.74-98.52,1.56-18.7-.67-37.39-2.12-55.98-4.57-15.74-2.07-31.34-4.82-46.91-7.93-12.9-2.58-25.63-5.77-38.29-9.23-12.21-3.34-24.23-7.37-36.06-11.88-7.66-2.93-15.26-6.03-22.79-9.28-12.25-5.29-24.09-11.42-35.77-17.87-17.82-9.84-35.14-20.51-52.07-31.81-10.18-6.79-20.05-14.02-30-21.14-9.52-6.81-18.79-13.94-28.05-21.09-13.08-10.09-26.01-20.38-38.53-31.17-9.94-8.57-19.84-17.18-29.71-25.84-3.37-2.96-6.58-6.1-9.8-9.21-.72-.69-2.19-1.52-1.29-2.6.86-1.03,1.87.13,2.79.73,4.07,2.64,8.21,5.1,12.6,7.29,5.77,2.88,11.46,6,17.19,9.02,5.01,2.64,9.96,5.37,15.19,7.63,3.95,1.7,7.75,3.86,11.65,5.77,7.26,3.54,14.67,6.72,22.1,9.86,11.47,4.85,23.28,8.8,35.1,12.67,8.72,2.85,17.57,5.27,26.49,7.44,10.65,2.59,21.37,4.76,32.19,6.44,16.25,2.51,32.62,3.85,49,5.22,23.19,1.93,46.43,1.01,69.64,1.66,18.65.52,37.19,2.28,55.44,6.18,11.51,2.46,22.85,5.74,34.03,9.57,14.19,4.86,27.94,10.69,41.27,17.46,9.83,4.99,19.65,10.15,28.82,16.22,10.99,7.26,21.69,14.99,31.88,23.45,12.58,10.43,24.51,21.49,35.65,33.42,3.43,3.67,6.47,7.7,9.58,11.65,1.9,2.4,4.32,3.62,7.3,3.91,13.99,1.36,28.02,1.46,42.03.82,23.09-1.05,46.16-2.76,69.09-5.72,15.63-2.02,31.21-4.51,46.78-6.96,12.21-1.92,24.43-3.87,36.56-6.22,15.36-2.98,30.6-6.57,45.97-9.5,6.77-1.29,13.34-3.5,20.23-4.26,3.44-.38,6.36-2.6,10.03-2.77,2.15-.1,1.59-2.18.25-3.41-4.12-3.78-7.68-8.03-11.08-12.46-6.6-8.61-12.3-17.72-17.48-27.28-6.06-11.2-10.88-22.89-15.55-34.67-2.65-6.69-4.54-13.68-6.72-20.55-3.37-10.59-5.8-21.52-12.57-30.78-8.34-11.41-18.55-20.61-30.83-27.56-1.52-.86-2.99-1.81-4.49-2.71-.55-.33-1.26-.59-.95-1.43.22-.6.86-.67,1.38-.69.65-.03,1.36-.07,1.94.16,13.53,5.32,27.9,6.33,42.11,7.84,11.09,1.18,22.27,1.78,33.45,1.97,15.24.26,30.43-.55,45.64-1.42,8.54-.49,16.99-2.02,25.52-2.33,10.79-.39,21.28,1.76,31.81,3.98,6.55,1.38,12.65,4.03,18.45,6.76,8.67,4.07,16.57,9.77,23.99,16.09,12.71,10.84,22.06,24.11,29.83,38.69,4.64,8.7,8.07,17.86,11.11,27.22,2.13,6.56,4.16,13.11,5.31,19.92.38,2.27-.36,3.34-2.62,4.03-9.73,2.95-19.59,5.45-29.32,8.38-15.38,4.64-31,8.35-46.48,12.58-8.96,2.45-18.15,4.07-27.12,6.48-10.47,2.81-21.09,5.02-31.71,7.07-6.95,1.34-13.82,3.45-20.99,3.65-1.96.05-3.94.31-5.87.7-2.27.46-3.16,1.94-2.2,4.15,5.12,11.82,10.24,23.6,17.18,34.57,7.56,11.96,15.58,23.5,25.32,33.78,1.61,1.7,1.64,2.65-.63,3.9-5.26,2.89-10.81,5.11-16.22,7.63-6.34,2.95-12.66,5.93-18.96,8.95-9.06,4.33-18.17,8.56-27.12,13.1-10.43,5.3-21.13,10.02-31.45,15.56-8.17,4.38-16.69,8.12-25,12.24-8.12,4.02-16.17,8.18-24.27,12.25-8,4.02-15.97,8.08-24.03,11.98-2.23,1.08-4.16,2.59-6.55,3.5-2.34.89-1.2,3.29.16,4.63,7.85,7.78,15.89,15.36,24.45,22.37,6.68,5.47,13.44,10.85,20.56,15.74,9.35,6.43,18.79,12.75,28.92,17.92,5.84,2.98,11.73,5.89,17.55,8.91,1.69.88,3.16,1.15,4.9.04,7.44-4.76,15.05-9.26,22.4-14.15,11.65-7.74,23.15-15.7,34.55-23.81,13.02-9.26,25.62-19.07,38.3-28.77,7.37-5.64,14.64-11.43,21.87-17.26,3.52-2.84,3.4-4.71.91-8.71-4.04-6.5-7.81-13.17-11.61-19.82-5.09-8.91-10.14-17.84-15.12-26.8-2.17-3.9-4.32-7.79-6.72-11.56-2.17-3.4-1.54-4.75,1.97-6.68,7.69-4.23,15.93-7.26,23.79-11.1,11.96-5.85,24.49-10.3,36.84-15.16,13.59-5.35,27.25-10.55,41.13-15.16,9.11-3.02,18.05-6.56,27.13-9.7,3.08-1.07,6.42-1.35,9.18-3.39,1.34-.99,1.94-2.1,1.21-3.64-4.53-9.57-7.91-19.6-11.75-29.43-2.54-6.49-5.65-12.79-7.42-19.58-1-3.82.01-6.05,3.78-7.44,4.71-1.73,9.43-3.45,14.21-4.98,8.41-2.69,16.8-5.43,25.31-7.79,8.11-2.25,16.33-4.16,24.55-5.99,17.21-3.84,34.6-6.77,52.14-8.43,25.58-2.42,51.19-2.65,76.73.71,9.98,1.31,19.93,2.93,29.74,5.2,14.28,3.31,28.15,7.98,41.73,13.46,4.21,1.7,8.61,3.14,12.54,5.25,5.17,2.78,10.3,5.71,15.43,8.59,7.25,4.07,14.26,8.56,20.9,13.51,8.31,6.21,16.42,12.71,23.73,20.13,5.76,5.85,11.48,11.74,16.71,18.08.67.81,1.7,1.45,1.42,3.1-2.42-.62-5.07-.75-7.12-1.94-3.16-1.83-6.79-2.23-9.93-4.08-2.8-1.65-6.22-1.91-9.32-2.88-7.61-2.36-15.29-4.59-23.07-6.42-10.22-2.41-20.48-4.65-30.85-6.29-14.37-2.28-28.77-4.27-43.34-5.03-14.44-.76-28.87-1.77-43.34-1.09-15.53.72-31.09,1.11-46.56,2.87-16.95,1.93-33.82,4.48-50.6,7.5-9.57,1.72-18.99,4.23-28.48,6.42-5.74,1.32-11.49,2.58-17.18,4.08-5.27,1.39-10.45,3.14-15.71,4.58-3.57.98-7.29,1.33-10.75,2.83-2.87,1.24-3.15,2.08-1.82,4.93,2.22,4.75,4.17,9.62,6.26,14.42,3.48,7.99,6.99,15.96,10.46,23.96,1.22,2.8,2.44,5.6,3.51,8.46,1.52,4.07,4.49,6.76,7.94,6.52,14.25-.99,28.46.01,42.69.67,16.84.78,33.24,4.05,49.31,8.92,7.7,2.33,14.99,5.98,21.59,10.48,4.86,3.32,9.15,7.67,12.41,12.77.77,1.21,1.33,2.76.38,4.02-1.19,1.6-2.28-.08-3.41-.46-.72-.24-1.47-.45-2.22-.55-16.37-2.1-32.72-2.46-49.14-.3-17.01,2.24-33.36,6.82-49.38,12.8-14.04,5.24-27.44,11.77-40.53,19.06-18.75,10.44-36.3,22.55-53.22,35.69-6.32,4.9-12.4,10.12-18.27,15.45-12.04,10.95-23.63,22.42-36.01,33-10.87,9.29-22.04,18.25-33.46,26.88-7.85,5.93-15.95,11.51-24.03,17.1-11.07,7.65-22.59,14.54-34.46,20.89-5.97,3.2-11.91,6.47-18.05,9.33-7.9,3.68-15.93,7.05-24.05,10.22-6.63,2.59-13.49,4.38-20.17,6.8-4.5,1.63-9.32,2.38-14.02,3.44-12.89,2.93-26,3.72-39.17,3.63-1.65-.01-4.51.52-4.58-1.18-.08-1.97,2.75-1.27,4.34-1.53,2.18-.35,4.31-.73,6.29-1.78.67-.36,1.4-.8,2.12-.83,12.07-.47,23.21-4.93,34.41-8.65,12.2-4.05,24.21-8.8,35.59-15,7.08-3.86,14.33-7.38,21.08-11.81,5.01-3.28,9.79-6.85,14.47-10.59,2.7-2.16,5.4-4.37,8.13-6.52,3.12-2.46,3.51-4.6.75-7.35-6.9-6.85-13.99-13.48-22.72-18.07-3.64-1.92-7.16-4.07-10.66-6.25-1.76-1.1-3.22-1.07-4.73.36-9.4,8.92-19.79,16.58-30.67,23.53-7.72,4.93-15.81,9.26-24.08,13.27-5.4,2.62-10.9,5.05-16.47,7.15-6.72,2.53-13.45,5.22-20.52,6.74-3.31.71-6.45,1.93-9.76,2.71-11.2,2.63-22.49,4.43-33.9,5.91-15.31,1.98-30.65,2.19-45.92,1.11-15.36-1.09-30.67-3.2-45.8-6.53-8.98-1.97-17.9-4.19-26.7-6.72-9.61-2.76-19.14-5.9-28.45-9.72-6.94-2.85-13.92-5.63-20.83-8.57-10.55-4.48-20.8-9.54-30.95-14.84-15.81-8.25-31.11-17.36-46.1-26.97-14.08-9.02-27.59-18.86-40.99-28.87-15.15-11.32-29.83-23.2-44.17-35.51-16.68-14.32-32.95-29.1-48.58-44.58-12.98-12.85-26.06-25.61-38.4-39.08-3.84-4.2-8.28-7.76-12.06-11.97-5.52-6.15-10.78-12.53-16.12-18.84-.16-.18-.06-.58-.13-1.57Zm839.35,69.82c-.44-1.82-.95-3.92-1.79-5.97-3.54-8.62-8.39-16.56-12.79-24.73-2.28-4.25-4.63-4.85-8.86-2.56-3.23,1.75-6.7,3.2-10.08,4.31-3.39,1.12-6.8,2.34-10.02,3.76-8.88,3.92-17.52,8.38-26.29,12.55-9.87,4.7-19.4,10.03-28.87,15.47-8.71,5.01-17.3,10.24-25.87,15.49-4.95,3.03-9.77,6.26-14.61,9.46-2.01,1.33-2.4,2.94-.68,4.93,3.07,3.55,5.94,7.29,9.08,10.78,8.63,9.58,17.38,19.06,26.05,28.62,2.69,2.96,4.26,3.2,7.03.26,8.44-8.91,18.28-16.21,28.09-23.41,9.45-6.94,19.01-13.8,28.98-20.07,12.83-8.07,25.19-16.88,38.32-24.5,1.59-.93,2.26-2.3,2.32-4.39Z"/>
    <path class="cls-1" d="m1133.18,255.94c1.77-1.38,3.42-1.45,5.01-1.54,3.74-.21,7.29-1.98,10.85-2.11,4.8-.18,8.93-2.48,13.58-2.92,3.61-.34,6.89-2.21,10.47-3.04,6.24-1.45,12.52-3.06,18.42-5.49,3.15-1.3,6.35-2.36,9.52-3.55,3.33-1.25,6.57-2.21,10.17-2.2,2.23.01,4.14-.73,4.87-3.48.71-2.66,3.83-2.58,5.81-3.66,6.94-3.8,14.04-7.27,20.87-11.33,8.06-4.8,15.91-9.89,23.48-15.39,16.8-12.22,31.98-26.25,45.42-42.12.78-.92,1.49-1.91,2.08-2.95.84-1.46.55-2.68-.96-3.62-4.15-2.58-8.64-4.28-13.46-4.91-8.9-1.17-17.5.86-25.88,3.37-8.26,2.48-16.37,5.48-24.07,9.49-6.34,3.31-12.77,6.46-18.77,10.41-1.31.86-2.88,1.35-5,2.32,1.81-4.57,4.59-7.69,7.31-10.39,5.19-5.17,10-10.68,14.99-16.02,13.41-14.36,27.9-27.51,43.03-40,5.71-4.72,11.44-9.51,17.51-13.64,6.74-4.59,13.66-9.05,20.72-13.22,8.05-4.76,16.32-9.16,24.77-13.1,8.29-3.87,16.84-7.2,25.59-10.06,9.49-3.1,19.06-5.59,28.89-7.17,2.36-.38,4.81-.24,7.21-.43,3.15-.25,5.89-1.58,8.47-3.32,7.07-4.77,14.44-9.07,21.7-13.54,5.54-3.42,11.25-6.58,16.91-9.73,6.01-3.35,12.13-6.66,18.52-9.42,6.57-2.84,13.1-5.81,19.65-8.72,3.4-1.51,6.91-2.71,10.41-3.92,1.46-.51,3.03-1.03,4.24.46,1.2,1.47.51,2.95-.33,4.26-4.19,6.52-8.57,12.92-12.62,19.53-3.93,6.42-8.11,12.69-11.51,19.43-3.13,6.21-.73,15.13,8.83,15.52,4.91.2,9.2,2.71,13.78,4.14,6.76,2.11,13.13,5.28,19.68,7.94,4.36,1.76,8.79,3.53,13.02,5.71,7.31,3.78,14.88,7.06,22.29,10.64,4.13,1.99,8.21,4.07,12.23,6.28,10.22,5.63,20.47,11.22,30.55,17.08,8.38,4.87,16.53,10.12,24.8,15.16,3.93,2.4,8,4.58,11.86,7.08,6.6,4.28,12.99,8.89,19.67,13.05,4.76,2.97,8.98,6.75,14.15,9.12,2.01.92,3.49,2.76,5.43,3.98,4.29,2.72,8.3,5.89,12.4,8.9,4.36,3.21,7.95,6.52,7.14,12.95-.82,6.49-.61,13.12-.71,19.69-.09,5.77-1.78,11.33-3.22,16.71-1.77,6.59-5.34,12.91-12.6,15.6-6.82,2.53-12.98.97-18.99-2.76-3.47-2.16-6.38-4.99-9.73-7.27-5.25-3.58-11.33-4.52-17.4-5.14-10.26-1.04-20.42-2.49-30.17-6.02-2.44-.88-4.72-2.15-7.15-3.11-7.63-3.02-15.48-2.44-23.34-2.3-3.86.07-6.6,2.73-9.76,4.38-7.74,4.06-15.43,8.22-23.13,12.36-6.46,3.48-13.21,6.29-19.96,9.14-6.99,2.94-14.19,5.14-21.52,6.91-8.64,2.08-17.37,3.32-26.35,2.96-12.62-.51-23.6-4.67-32.14-14.07-4.68-5.14-7.71-11.42-9.48-18.17-1.18-4.5-2.9-8.96-2.11-13.79.05-.31-.02-.66-.09-.98-.43-2.04-.67-4.46-3.45-4.4-2.5.05-3.12,2.27-3.3,4.24-1.23,13.52-3.02,26.97-3.82,40.54-1,17.03.3,33.93,1.43,50.85.22,3.25.91,6.52,1.77,9.68,1.12,4.1.67,8.39,2.06,12.48,1.51,4.41,2.9,9,3.58,13.54.71,4.67,2.42,8.93,3.81,13.28,3.4,10.61,7.11,21.11,11.97,31.21,5.08,10.56,11.21,20.44,17.72,30.11,1.21,1.79,2.71,3.39,3.95,5.19,1.72,2.51,3.8,2.47,6.13.57,7.94-6.48,16.48-12.18,23.86-19.41,15.35-15.04,29.74-30.9,42.24-48.36,6.23-8.7,12.12-17.65,17.72-26.81,3.18-5.21,6.61-10.31,9.3-15.76,2.35-4.77,3.68-10.03,6.91-14.39,4.28-5.78,9.41-10.41,16.29-13,10.39-3.91,20.63-3.08,31.24-.55,10.76,2.57,19.82,8.36,29.35,13.34,10.06,5.26,19.63,11.38,29.04,17.68,9.17,6.14,17.91,12.9,26.47,19.86,9.58,7.79,18.71,16.06,27.08,25.17,4.23,4.6,9.94,7.57,13.96,12.41,4.12,4.96,6.83,10.17,7.06,17.12.25,7.57,2.44,15.08,3.78,22.62,1.69,9.48,3.38,18.96,5.03,28.44.25,1.45-.04,2.87-1.01,4.03-5.4,6.46-10.83,12.89-16.21,19.36-1.72,2.07-3.54,2.16-5.79.9-9.16-5.15-18.33-10.27-27.54-15.31-9.19-5.03-18.45-9.96-27.67-14.94-1.91-1.03-3.56-2.46-5.58-3.38-1.6-.73-1.41-2.27-.38-3.62,4.77-6.25,9.32-12.66,13.61-19.26,1.19-1.84,3.02-2.77,5.17-3.18,3.65-.71,7.27-1.65,10.94-2.24,4.34-.7,8.02-2.9,11.73-4.96,3.6-2,3.73-6.64.1-8.96-8.93-5.7-17.34-12.14-26.29-17.81-8.5-5.39-17.12-10.6-26.19-14.83-11.15-5.2-22.12-11.09-34.2-14-8.6-2.07-18.85.84-24.68,9.68-6.43,9.76-13.96,18.75-20.28,28.6-4.12,6.43-8.33,12.81-12.54,19.19-7.71,11.67-14.62,23.83-21.68,35.9-4.24,7.25-7.94,14.83-11.84,22.28-3.03,5.78-5.99,11.59-8.98,17.39-.64,1.24-1.89,2.62-.34,3.78,1.41,1.05,3.03.23,4.19-.81,4.45-3.99,9.4-7.35,14.05-11.09,6.05-4.87,12.03-9.83,17.82-14.98,5.71-5.08,11.42-10.14,17.37-14.93,10.55-8.48,22.62-12.15,35.89-9.3,5.65,1.22,10.82,4.65,15.27,8.67,8.37,7.55,17.14,14.65,24.84,22.96,6.94,7.48,13.15,15.52,19.2,23.68,5.59,7.54,10.94,15.29,16.04,23.17,5.15,7.95,9.92,16.14,14.66,24.34,5.35,9.27,10.37,18.72,15.28,28.21,2.99,5.78,4.52,11.91,2.81,18.91-2.25,9.22-3.06,18.78-4.68,28.16-1.34,7.77-2.6,15.54-3.55,23.36-.25,2.04-1.37,3.62-3.19,4.74-5.94,3.68-11.85,7.4-17.74,11.16-2.61,1.67-5.07,1.97-7.42-.42-5.3-5.38-10.67-10.69-15.89-16.14-9.61-10.03-19.14-20.14-28.7-30.22-4.23-4.46-4.01-6.35,1.09-9.87,3.78-2.61,7.53-5.27,11.32-7.87,2.87-1.97,6.29-1.85,9.51-2.04,7.43-.45,14.89-.58,22.34-.8,2.6-.08,4.82-.9,5.9-3.39,1.06-2.44.24-4.49-1.37-6.64-3.97-5.34-7.6-10.93-11.43-16.38-6.37-9.06-13.65-17.38-21.24-25.4-9.34-9.87-19.41-19.04-30.56-26.81-12.76-8.88-25.19-9-37.69,2-12.64,11.12-25.68,21.77-38.5,32.68-11.08,9.43-21.76,19.35-33.22,28.29-11.44,8.92-20.5,20.37-32.06,29.09-7.06,5.33-14.01,10.78-21.55,15.48-7.62,4.76-15.44,9.14-23.64,12.71-8.48,3.69-17.1,7.01-26.07,9.6-12.82,3.7-25.87,5.61-39.04,6.81-9.15.84-18.38.54-27.58-.26-11.03-.96-22.02-2.15-32.84-4.54-11.2-2.48-22.13-5.85-33.01-9.5-5.92-1.99-11.62-4.5-17.4-6.76-8.2-3.21-16.05-7.41-23.84-11.57-7.29-3.89-14.31-8.29-21.46-12.45-.6-.35-1.14-.68-1.11-1.45.03-.76.55-1.25,1.21-1.38,2.65-.53,4.98-1.88,7.83-2.14,3.96-.36,7.85-1.78,11.71-2.98,8.83-2.73,17.7-5.37,26.45-8.3,11.36-3.8,22.63-7.89,33.75-12.47,7.54-3.1,15.17-6.11,22.59-9.46,6.44-2.91,12.82-6.05,18.99-9.58,4.93-2.82,9.95-5.47,14.75-8.52,10.52-6.71,20.68-13.95,29.22-23.1,3.62-3.87,7.59-7.53,10.49-12.06.12-.18.38-.35.38-.53-.13-5.88,5.68-8.27,7.58-13.21,5.35-13.9,6.39-27.75,2.24-42.04-5.76-19.86-18.23-35.42-32.18-49.95-12.83-13.36-27.23-24.93-42.35-35.61-15.17-10.72-30.94-20.52-47.09-29.65-11.89-6.72-24.04-13.02-36.27-19.11-9.25-4.61-19.09-7.8-28.86-11.24-10.9-3.84-22.47-4.82-33.11-8.98-7.61-2.97-15.73-2.34-23.31-5-11.14-3.9-22.99-4.69-34.43-7.32-3.1-.71-6.46-.33-9.79-1.99Z"/>
    <path class="cls-1" d="m516.77,348.56c-10.51.1-21.91-.68-33.18-2.19-16.92-2.26-33.44-6.31-49.6-12.08-13.23-4.73-25.84-10.64-37.85-17.72-11.01-6.5-21.39-14.02-31.1-22.43-5.14-4.45-9.58-9.56-14.41-14.3-.86-.85-2.26-1.97-1.36-3.34.88-1.35,2.3-.19,3.26.22,6.82,2.98,13.95,5.11,21.05,7.22,9.41,2.8,18.94,5.17,28.59,7.14,6.97,1.43,13.99,2.58,21,3.65,9.28,1.41,18.71,1.95,28.1,2.63,12.91.95,25.88.68,38.74-.22,13.08-.91,26.2-1.41,39.24-3.29,13.09-1.89,26.37-2.46,39.48-4.25,27.5-3.76,55.07-5.71,82.83-5.53,20.39.13,40.56,1.23,60.58,5.81,12.24,2.8,23.81,7.08,35.26,11.92,6.06,2.56,11.11,6.85,16.46,10.6.66.46,1.18,1.01.87,1.91-.31.92-1.07,1-1.86.91-19.32-2.38-38.47-.01-57.63,2.06-10.87,1.18-21.66,2.88-32.47,4.52-7.25,1.1-14.49,2.27-21.64,3.74-7.26,1.49-14.58,2.71-21.83,4.32-9.71,2.16-19.47,4.14-29.18,6.34-6.92,1.57-13.8,3.28-20.69,4.96-9.54,2.32-19.09,4.98-28.93,5.66-10.92.76-21.83,1.87-33.7,1.75Z"/>
    <path class="cls-1" d="m1245.88,323.84c-.2,1.83-1.33,1.66-2.36,1.13-1.55-.8-2.91-1.98-4.5-2.66-8.75-3.73-17.72-6.64-27.12-8.47-19.24-3.76-38.66-5.35-58.14-4.39-15.72.78-31.45,1.99-47.13,3.79-18.21,2.09-36.57,2.8-54.75.35-9.76-1.32-19.43-3.74-28.95-6.74-10.65-3.36-21.02-7.35-31.08-12.05-10.52-4.92-20.59-10.77-30.5-16.9-7.24-4.47-12.96-10.61-19.24-16.12-1.73-1.52-3.42-3.07-5.38-4.29-.63-.39-1.36-.87-1.08-1.81.34-1.14,1.34-.96,2.18-.89.64.05,1.32.18,1.91.43,12.4,5.32,25.61,7.71,38.58,11.04,13.39,3.43,27.04,4.89,40.62,6.83,10.51,1.5,21.21.83,31.84,1.03,10.92.21,21.76-1.1,32.18-3.73,13.87-3.51,27.74-5.17,41.91-4.21,10.35.71,20.64,2.08,30.74,4.68,6.21,1.6,12.36,3.29,18.45,5.36,10.02,3.4,19.37,8.02,28.62,13.1,12.06,6.63,22.69,15.11,32.98,24.07,3.19,2.78,5.89,6.15,9.15,8.92.48.41.75,1.05,1.07,1.53Z"/>
  </g>
  <g>
    <path class="cls-1" d="m70.43,162.97c-17.64,0-35.28.03-52.92-.02-3.52,0-3.9-.79-2.48-3.89,2.4-5.26,3.8-10.93,6.78-15.98,1.51-2.57,3-4.04,6.36-4.02,22.02.16,44.06-.37,66.07.21,14.69.38,29.34-.51,44.01-.17,10.06.23,20.12,1,30.2.15,3.45-.29,4.6,1.12,3.34,4.39-2.94,7.6-6.04,15.08-10.42,22.09-4.89,7.82-11.73,13.51-18.74,18.95-5.41,4.2-12.02,6.67-18.38,9.32-7.28,3.02-14.96,4.74-22.55,6.76-2.16.57-4.34.57-6.52.57-26.63,0-53.26,0-79.89,0-3.93,0-7.86-.01-11.79.04-2.47.03-4.14-1.02-3.22-3.53,2.32-6.34,4.94-12.57,7.52-18.81.81-1.97,2.26-2.44,4.5-2.21,3.91.38,7.88.18,11.82.18,23.34,0,46.69.16,70.03-.07,10.98-.11,21.5-2.53,30.82-8.79,1.27-.85,2.94-1.79,2.41-3.5-.45-1.49-2.2-1.55-3.67-1.55-17.75,0-35.5,0-53.25,0,0-.03,0-.06,0-.09Z"/>
    <path class="cls-1" d="m428.87,175.91c-13.03,0-26.06.07-39.1-.05-2.91-.03-4.36,1.16-5.35,3.75-2.45,6.42-5.15,12.74-7.6,19.16-.76,1.98-2.03,2.68-3.98,2.68-8.97,0-17.95.04-26.92.02-2.76,0-3.59-1.15-2.71-3.73,1.88-5.48,4-10.86,6.18-16.23,3.46-8.48,6.57-17.1,9.96-25.61,1.81-4.55,3.12-9.33,5.97-13.45,1.55-2.23,3.26-3.49,6.2-3.42,8.62.19,17.25.04,25.87.12,3.14.03,3.45.69,2.04,3.55-.87,1.77-1.85,3.49-2.64,5.29-1.06,2.43.02,3.78,2.46,4.18.86.14,1.75.06,2.62.06,24.98,0,49.96,0,74.94,0,4.15,0,5.91-1.23,7.36-5.14.42-1.13.86-2.25,1.28-3.38,1.24-3.33,3.21-4.91,7.18-4.64,6.54.43,13.13.07,19.7.06,3.26,0,4,.75,2.86,3.66-3.51,8.95-6.47,18.09-10.23,26.95-2.55,6.03-4.52,12.3-6.82,18.44-1.38,3.67-2.87,7.29-4.35,10.92-.8,1.95-2.3,2.83-4.43,2.64-6.9-.62-13.8.04-20.69-.04-4.1-.05-4.79-1.14-3.15-5.04,1.86-4.42,2.96-9.14,5.32-13.38.55-.98.47-2.33.61-3.52.31-2.61-.68-3.73-3.5-3.7-13.03.11-26.06.05-39.09.05v-.18Z"/>
    <path class="cls-1" d="m1125.45,152.06c13.04,0,26.08-.03,39.12.02,3.04.01,4.98-.96,5.64-4.19.5-2.45,2.4-4.38,3-6.88.27-1.14,1.47-1.44,2.65-1.55,7.88-.76,15.76-.27,23.63.07,3.08.13,2.27,2.47,1.69,4.16-1.51,4.43-2.82,9.01-4.98,13.13-2.16,4.13-2.89,8.68-4.79,12.88-3.31,7.31-6.11,14.86-9.11,22.32-.78,1.93-1.61,3.84-2.24,5.82-.79,2.47-2.44,3.44-4.93,3.46-7.12.05-14.24.2-21.37.23-2.77,0-3.79-1.76-2.24-4.52,2.75-4.9,4.39-10.22,6.47-15.38,1.76-4.38.74-5.91-3.84-5.92-25.86-.03-51.72-.07-77.59-.12-3.3,0-5.92,1.94-7.06,5.16-2.18,6.14-4.48,12.23-6.61,18.38-.71,2.06-2.01,2.51-4.01,2.48-8.54-.14-17.08-.2-25.62-.17-3.95.01-4.77-.92-3.24-4.67,5.36-13.16,9.98-26.61,15.34-39.78,1.79-4.41,3.54-8.85,5.52-13.18,2.03-4.43,3.8-5.32,8.57-4.51,1.8.31,3.48-.19,5.21-.3,6.57-.41,13.12.92,19.69.16.83-.1,1.55.24,1.91,1.01.48,1.03.12,1.97-.66,2.68-1.75,1.59-2.09,3.74-2.66,5.87-.69,2.6.23,3.27,2.74,3.26,12.38-.02,24.76.1,37.14.17.88,0,1.75,0,2.63,0v-.08Z"/>
    <path class="cls-1" d="m572.74,201.24c-16.65,0-33.3,0-49.95.01-1.75,0-3.5.33-5.24.27-2.29-.07-3.57-1.14-2.65-3.62,3.01-8.08,6.27-16.06,9.55-24.04,3.61-8.8,6.88-17.74,10.11-26.69,3.05-8.46,2.94-8.49,11.76-8.23,5.14.15,10.29.33,15.43.41,2.62.04,3.48.98,2.82,3.68-1.19,4.93-3.46,9.44-5.16,14.17-1.77,4.92-3.69,9.75-5.89,14.51-1.79,3.87-.18,5.91,4.07,5.91,21.25,0,42.52.36,63.76-.3,7.1-.22,14.19-2.24,20.74-6.28,7.47-4.61,10-11.71,12.58-19.08,1.01-2.89,2.43-5.6,3.23-8.59.62-2.32,2.31-3.98,5.01-3.99,7.18-.02,14.36-.09,21.54,0,3.32.04,3.64.6,2.46,3.77-3.81,10.23-7.46,20.51-11.6,30.61-2.19,5.35-6.48,9.15-11.29,12.4-4.55,3.07-9.29,5.76-14.27,7.98-9.32,4.16-18.91,7.3-29.32,7.23-15.89-.11-31.77-.03-47.66-.03,0-.04,0-.07,0-.11Z"/>
    <path class="cls-1" d="m259.06,163.2c-13.69,0-27.38.07-41.07-.05-3.07-.03-4.79.88-5.83,3.94-3.22,9.48-7.34,18.64-10.4,28.19-1.68,5.25-2.77,5.96-8.48,5.99-6.01.04-12.01.11-18.02.11-3.69,0-4.08-.87-3.07-4.35,2.51-8.61,6.31-16.74,9.25-25.19,2.7-7.74,5.69-15.55,9.4-22.97,1.02-2.04,1.57-4.31,2.4-6.45.76-1.95,2.19-2.64,4.33-2.8,4.04-.3,8.04-.03,12.07.03,34.6.53,69.22,1.4,103.81.39,8.84-.26,17.66.44,26.48-.25,3.68-.29,4.28.81,3.07,4.17-3.38,9.42-6.57,18.96-10.48,28.1-3.77,8.8-6.49,18.01-10.76,26.6-.93,1.87-2.29,2.6-4.14,2.61-7.12.04-14.24.07-21.35-.01-2.53-.03-3.15-1.47-2.29-3.79,2.55-6.86,5.51-13.56,7.6-20.61.85-2.86,2.74-5.42,3.88-8.27,1.36-3.39.63-4.97-3.03-5.21-3.6-.24-7.22-.13-10.84-.14-10.84-.01-21.69,0-32.53,0,0-.01,0-.03,0-.04Z"/>
    <path class="cls-1" d="m909.08,138.57c22.02.58,44.91,1.22,67.79.59,14.89-.41,29.78-.12,44.67-.56,2.59-.08,5.21.45,7.81.73,1.55.17,1.2,1.14.91,2.17-1.33,4.67-4.94,7.7-8.18,10.86-5.39,5.26-12.62,7.2-19.45,9.76-2.7,1.01-5.52,1.3-8.39,1.29-9.42-.05-18.84.06-28.25-.16-3.32-.08-4.96,1.21-6.05,4.22-3.38,9.33-7.34,18.43-10.39,27.89-1.71,5.3-2.89,6.05-8.46,6.15-6.24.11-12.47.14-18.71.14-3.6,0-4.41-1.13-3.2-4.41,3.52-9.51,7.14-18.97,11.36-28.19,1.73-3.77.62-5.62-3.58-5.65-9.2-.05-18.4.08-27.6-.08-5.18-.09-10.15-.93-14.24-4.76-4.05-3.8-6.69-8.03-5.91-13.8.41-3,1.75-5.05,5.06-5.52,7.97-1.14,15.97-.05,24.81-.64Z"/>
    <path class="cls-1" d="m810.6,201.82c-4.8,0-9.65-.41-14.4.11-5.22.57-7.32-2.67-9.52-6.24-3.26-5.3-6.51-10.62-9.85-15.87-1.36-2.14-3.32-3.38-6.02-3.36-9.42.09-18.84.11-28.25.16-3.26.02-4.35-1.11-3.26-4.23,2.09-5.99,4.41-11.9,6.86-17.75.83-1.98,2.49-2.96,4.98-2.95,18.3.08,36.6.02,54.9-.09,3.16-.02,6.33-.33,9.48-.7,6.37-.75,10.66-4.83,14.36-9.57,2.04-2.62,4.26-3.42,7.61-3.15,6.06.48,12.18.28,18.28.36,4.34.06,5.06,1.35,3.13,5.16-3.27,6.45-8.22,11.36-13.72,15.92-6.61,5.49-13.98,9.64-21.62,13.45-3.23,1.61-6.77,1.7-10.11,2.72-3.09.94-3.93,3.1-1.88,5.61,4.31,5.29,7.25,11.45,10.98,17.1,1.27,1.92.72,3.1-1.75,3.08-3.4-.03-6.79,0-10.19,0,0,.08,0,.15,0,.23Z"/>
    <path class="cls-1" d="m789.92,125.29c-23.98,0-47.95,0-71.93,0-2.73,0-3.79-1.16-2.6-3.61,2.44-5.03,4.1-10.3,5.92-15.56,1.62-4.69,6.28-4.99,10.49-4.98,12.69.03,25.39.32,38.08.33,31.86.03,63.73-.05,95.59-.07,8.4,0,9.16,1.07,6.29,8.9-1.28,3.49-2.7,6.93-3.89,10.46-1.1,3.28-3.21,4.55-6.67,4.53-23.76-.09-47.52-.05-71.29-.05v.04Z"/>
    <path class="cls-1" d="m125.33,125.31c-17.04-.29-33.8.02-50.56-.23-9.18-.14-18.4.12-27.6.2-1.2,0-2.42-.07-3.59-.29-1.3-.25-3.11.37-3.65-1.48-.54-1.86.73-3.08,1.99-4.18,2.23-1.96,4.83-3.32,7.37-4.83,6.23-3.72,12.86-6.63,19.68-8.73,11.28-3.46,22.76-6.37,34.81-4.94,2.71.32,5.47.27,8.21.27,23.45,0,46.9-.02,70.35-.03,4.72,0,5.52,1.28,3.93,5.81-1.8,5.12-3.08,10.41-5.66,15.27-1.07,2.02-2.37,2.82-4.61,2.9-16.98.59-33.96-.1-50.67.26Z"/>
    <path class="cls-1" d="m1142.31,125.01c-20.81,0-41.63.02-62.44-.03-2.5,0-5-.39-7.5-.67-1.91-.21-2.35-1.26-1.66-3,1.26-3.17,4.27-4.25,6.86-5.8,7.63-4.57,16.05-7.45,24.26-10.67,6.1-2.39,12.75-3.17,19.32-3.2,30.13-.12,60.25-.09,90.38-.08,4.8,0,5.99,1.45,3.99,5.76-2.22,4.78-3.69,9.82-5.87,14.6-.86,1.89-2.02,2.89-4.25,2.88-21.03-.06-42.06-.03-63.08-.03,0,.08,0,.17,0,.25Z"/>
    <path class="cls-1" d="m458.84,124.91c-13.29-.54-29.82-.01-46.36.08-7.66.05-15.32-.2-22.98-.35-1.52-.03-3.23.08-3.89-1.73-.61-1.68.48-2.87,1.47-4.09,2.24-2.77,5.56-3.84,8.5-5.47,15.15-8.38,31.39-12.08,48.71-11.97,25.62.16,51.25-.15,76.88-.23,1.97,0,3.94.22,5.91.22,2.79,0,3.55,1.39,2.62,3.81-2.28,5.92-4.58,11.82-6.98,17.69-.93,2.28-3.11,2.06-5.09,2.06-18.51,0-37.02,0-58.78,0Z"/>
    <path class="cls-1" d="m699.85,201.69c-3.51,0-7.01.09-10.52-.02-3.31-.1-3.95-1.42-2.8-4.39,3.23-8.35,5.93-16.93,9.57-25.08,3.65-8.18,5.99-16.86,9.95-24.9,1.23-2.5,1.03-5.67,3.62-7.55.7-.51,1.23-1.28,2.22-1.24,7.75.27,15.5-.54,23.26.37,2.56.3,3.08,1.35,2.19,3.41-3.09,7.13-5.59,14.51-8.2,21.79-2.92,8.12-6.34,16.03-9.21,24.15-1.23,3.49-2.86,6.85-4.34,10.25-.98,2.26-2.74,3.27-5.21,3.23-3.5-.06-7.01-.02-10.52-.01Z"/>
    <path class="cls-1" d="m1022.58,125.2c-4.04,0-8.08.03-12.12-.01-1.67-.02-2.96-.58-2.04-2.58,2.86-6.25,4.28-13.05,7.55-19.15,1.04-1.95,2.34-2.43,4.44-2.47,7.64-.15,15.3.5,22.93-.38,2.42-.28,2.93,1.26,2.38,3.1-.97,3.23-2.18,6.4-3.36,9.56-1.11,2.97-2.49,5.84-3.41,8.86-.75,2.43-2.17,3.3-4.57,3.26-3.94-.07-7.87-.02-11.81-.02,0-.05,0-.11,0-.16Z"/>
    <path class="cls-1" d="m557.67,125.19c-3.83,0-7.66-.05-11.49.02-2.67.04-3.7-.89-2.62-3.59,2.31-5.76,4.54-11.55,6.82-17.32,1.08-2.75,2.85-4.25,6.04-3.68,6.51,1.16,13.05.15,19.58.09,3.53-.03,4.58.84,4.07,4.25-.35,2.35-1.7,4.24-2.42,6.41-1.16,3.51-2.62,6.94-3.66,10.48-.81,2.75-2.53,3.52-5.15,3.44-3.72-.11-7.44-.03-11.16-.03,0-.03,0-.05,0-.08Z"/>
    <path class="cls-1" d="m901.65,125.06c-3.82,0-7.65.05-11.47-.02-2.49-.04-3.4-1.01-2.75-3.77,1.47-6.19,4.75-11.65,6.73-17.62.71-2.15,2.65-2.57,4.51-2.6,7.32-.11,14.64-.18,21.96-.07,3.02.05,3.67,1.19,2.59,4.05-2.19,5.81-4.44,11.6-6.73,17.38-.76,1.9-2.28,3.07-4.36,2.78-3.51-.48-6.99.34-10.48-.14Z"/>
    <path class="cls-1" d="m336.25,125.04c-3.72,0-7.44.01-11.15,0-2.36,0-3.52-.71-2.43-3.41,2.32-5.76,4.46-11.59,6.64-17.4.97-2.58,3.2-2.84,5.4-2.83,6.34.03,12.69.12,19.02.38,3.95.16,5.14,2.07,3.75,5.92-1.69,4.73-3.63,9.37-5.4,14.07-.89,2.35-2.44,3.41-5.01,3.33-3.61-.13-7.22-.03-10.83-.03,0,0,0-.01,0-.02Z"/>
    <path class="cls-1" d="m680.7,124.91c-3.5,0-6.99.05-10.49-.02-2.92-.06-3.53-1.16-2.96-3.95,1.18-5.72,3.83-10.89,5.8-16.31.78-2.15,2.14-2.98,4.72-3.02,6.49-.11,12.96.35,19.44.22,4.49-.09,5.18.76,3.65,4.95-1.9,5.23-3.93,10.41-5.84,15.64-.68,1.86-2.03,2.4-3.83,2.39-3.5-.03-7,0-10.49,0,0,.03,0,.06,0,.09Z"/>
    <path class="cls-1" d="m222.09,101.66c3.49,0,6.98.05,10.47-.02,2.99-.06,3.85,1.16,3.09,4.04-1.59,6.02-4.34,11.62-6.29,17.5-.44,1.33-1.39,1.92-2.75,1.84-7.85-.45-15.72.32-23.57-.43-1.79-.17-2.78-.65-2.03-2.61,2.13-5.61,4.29-11.2,6.38-16.83.92-2.47,2.34-3.57,5.2-3.24,3.13.36,6.33.08,9.5.08,0-.11,0-.22,0-.33Z"/>
  </g>
  <g>
    <path class="cls-1" d="m1224.26,754.72c-12.27,0-24.55,0-36.82,0-.98,0-1.98.02-2.95-.11-3.41-.45-5.96,1.37-6.96,4.65-1.76,5.75-3.92,11.36-6.59,16.74-1.2,2.42-3.25,3.64-6.13,3.61-7.89-.07-15.78.05-23.67.04-3.72,0-4.75-1.49-3.43-5,4.08-10.85,8.1-21.73,12.46-32.47,2.79-6.87,5.05-13.94,8.52-20.54,1.52-2.89,3.88-4.08,6.94-4.09,7.88-.04,15.77-.05,23.65.02,1.59.01,3.53-.19,4.32,1.64.73,1.68-.77,2.8-1.59,4.05-1.08,1.62-2.57,3.21-1.41,5.36,1.18,2.18,3.23,1.65,5.23,1.64,13.59-.09,27.18-.08,40.77-.1,11.93-.02,23.87-.09,35.8,0,2.86.02,4.42-1.02,5.31-3.75,2.87-8.8,2.94-8.8,12.22-8.9,5.48-.06,10.96-.04,16.44-.03,3.34,0,3.97.84,2.76,3.99-4.25,11.02-8.6,22-12.86,33.01-2.24,5.8-4.47,11.6-6.52,17.47-2.12,6.07-4.13,7.61-10.52,7.64-5.37.03-10.74.15-16.11.18-4.65.03-5.37-1.33-3.5-5.54,2.12-4.78,3.78-9.75,6.01-14.5,1.64-3.49.41-5.1-3.55-5.1-12.6-.01-25.21,0-37.81,0v.1Z"/>
    <path class="cls-1" d="m1774.89,779.62c-22.89,0-45.78,0-68.68,0-4.45,0-5.55-2.24-3.7-6.38,2.61-5.85,4.85-11.87,7.19-17.83,3.35-8.53,6.62-17.1,9.99-25.63,1.08-2.72,2.3-5.39,3.57-8.04,1.26-2.64,2.93-4.01,5.73-4.04,9.3-.09,18.59-.16,27.89-.19,2.07,0,2.56,1.19,1.57,2.8-5.2,8.47-7.85,18.01-11.44,27.14-3.05,7.75-2.97,7.84,5.48,7.86,24.75.06,49.51.03,74.26.13,3.29.01,5.27-1.13,6.4-4.35,2.65-7.62,5.6-15.13,8.35-22.71.88-2.44,2.55-3.37,5.01-3.36,7.23.03,14.46,0,21.68.03,3.08.02,3.8.9,2.68,3.88-3.19,8.47-6.56,16.88-9.84,25.31-2.22,5.69-4.59,11.33-6.59,17.1-2.27,6.58-4.18,8.23-11.19,8.24-22.79.03-45.57.01-68.36.01v.02Z"/>
    <path class="cls-1" d="m1383.57,779.57c-23.55,0-47.11,0-70.66,0-4.75,0-5.17-.64-3.46-5.08,5.72-14.89,11.34-29.82,17.22-44.65,1.31-3.32,2.65-6.7,4.75-9.69,1.25-1.78,2.75-2.65,4.93-2.65,8.54.03,17.08-.01,25.62-.02,1.4,0,3-.33,3.89,1.12.95,1.56-.42,2.57-1.13,3.77-2.8,4.72-4.17,10.06-6.45,15-1.82,3.96-2.62,8.32-4.99,12.06-1.02,1.62-1.37,3.54-.43,5.34,1.07,2.06,3.02,1.19,4.71,1.19,10.63-.01,21.25-.02,31.88-.01,23.88.02,47.77.02,71.65.07,5.21.01,5.9.85,4.19,5.85-1.76,5.16-3.92,10.19-5.88,15.28-.95,2.47-3.02,2.51-5.17,2.51-11.94-.03-23.88-.04-35.83-.05-11.61,0-23.23,0-34.84,0v-.04Z"/>
    <path class="cls-1" d="m1077.61,679.42c23.99,0,47.97,0,71.96,0,3.05,0,3.8,1.01,2.64,3.84-2.15,5.25-4.22,10.52-5.8,15.97-1.04,3.57-3.51,4.18-7.06,4.16-41.07-.16-82.15-.13-123.22-.1-6.34,0-12.68-.33-19.03.15-2.93.22-3.7-.86-2.68-3.53,2.32-6.02,4.77-11.99,7.11-18,.76-1.94,2.11-2.5,4.1-2.5,23.99.04,47.98.03,71.97.03v-.02Z"/>
    <path class="cls-1" d="m1664.91,779.58c-3.18,0-6.36-.07-9.53.02-4.68.13-7.22-2.69-8.9-6.5-3.45-7.83-7.97-15.05-12.5-22.27-5.54-8.84-13.13-15.76-21.44-21.79-5.9-4.28-12.48-7.62-19.63-9.56-.67-.18-1.74.08-1.69-1.02.05-.93,1.03-1.02,1.75-1.18,2.85-.64,5.66.28,8.51.27,14.69-.05,29.38.29,44.05-.22,6.35-.22,9.92,1.86,12.07,7.72,1.34,3.65,4.09,6.71,5.22,10.55.3,1.03,1.17,1.64,2.28,1.5,1.46-.18,2.49-1.14,2.78-2.48.79-3.67,2.63-6.95,3.61-10.53,1.67-6.1,2.68-6.79,8.82-6.61,5.91.17,11.83,0,17.75.05,3.73.03,4.41.91,3.13,4.31-3.53,9.4-7.19,18.75-10.77,28.13-3.04,7.97-6.07,15.94-9.02,23.94-1.67,4.53-3.15,5.69-7.96,5.73-1.42.01-2.85,0-4.27,0-1.42,0-2.85,0-4.27,0v-.06Z"/>
    <path class="cls-1" d="m1416.25,703.22c-21.47,0-42.94,0-64.41.01-1.42,0-2.84.18-4.26.26-.78.04-1.63.07-2.05-.71-.47-.89.28-1.43.87-1.89,3.42-2.68,6.79-5.38,10.62-7.54,10.54-5.93,21.97-9.6,33.41-13.14,3.77-1.16,8.03-.97,12.06-.98,27.39-.06,54.78-.01,82.17,0,2.95,0,5.9-.12,8.85-.04,3.22.08,3.69,1.1,2.5,3.98-2.16,5.25-4.29,10.53-6.08,15.91-1.03,3.1-2.74,4.39-5.98,4.38-22.57-.06-45.13-.03-67.7-.03,0-.06,0-.13,0-.19Z"/>
    <path class="cls-1" d="m1809.63,703.33c-22.34,0-44.67,0-67.01,0-1.18,0-2.69.34-3.25-.94-.67-1.54.8-2.34,1.81-3.11,5.74-4.41,12.13-7.71,18.65-10.79,7.83-3.7,16.06-6.23,24.47-8.19,7.44-1.74,15.05-.97,22.57-1.03,22.45-.17,44.9-.06,67.34-.07,4.27,0,8.53-.04,12.8-.04,2.28,0,3.52.98,2.32,3.26-3.02,5.72-4.66,11.99-7.27,17.87-.98,2.21-2.32,3.14-4.75,3.13-22.56-.06-45.11-.04-67.67-.04v-.06Z"/>
    <path class="cls-1" d="m1245.6,703.31c-22.22,0-44.45,0-66.67-.01-1.27,0-2.9.37-3.44-1.18-.54-1.54.93-2.27,1.95-3.07,6.27-4.97,13.37-8.36,20.66-11.6,6.43-2.86,13.16-4.52,19.81-6.53,3.79-1.14,7.71-1.48,11.69-1.47,29.79.04,59.57.03,89.36.04,4.49,0,5.33.99,3.88,5.3-1.88,5.59-4.04,11.08-6.12,16.6-.59,1.57-1.92,1.89-3.47,1.89-22.55-.02-45.09-.01-67.64-.01,0,.02,0,.04,0,.05Z"/>
    <path class="cls-1" d="m980.79,779.62c-3.39,0-6.8.2-10.18-.05-3.94-.29-5.27-2.3-3.97-6.02,2.45-7,5.13-13.93,7.69-20.89,2.25-6.13,4.41-12.3,6.73-18.4,1.82-4.79,3.79-9.52,5.76-14.25.88-2.12,2.85-2.71,4.87-2.73,7.23-.07,14.45-.01,21.68.01,2.47,0,3.04,1.54,2.43,3.54-.77,2.51-1.77,4.94-2.72,7.39-4.35,11.19-8.79,22.34-13.05,33.57-1.86,4.9-3.43,9.89-5.66,14.66-1.17,2.51-2.75,3.39-5.37,3.25-2.73-.15-5.47-.03-8.21-.03,0-.02,0-.03,0-.05Z"/>
    <path class="cls-1" d="m1493.64,779.95c-3.61,0-7.22-.09-10.82.03-3.3.1-4.07-.73-2.87-3.82,3.01-7.72,6.17-15.37,9.17-23.09,2.37-6.1,4.57-12.26,6.9-18.37,1.9-4.98,3.83-9.95,5.82-14.89.95-2.37,3.17-2.49,5.26-2.51,6.67-.04,13.33,0,20,.04,3.57.02,4.62,1.36,3.27,4.73-2.04,5.06-4.06,10.12-5.95,15.24-3.16,8.59-6.57,17.08-9.88,25.61-1.93,4.97-3.91,9.91-5.75,14.91-.63,1.7-1.81,1.97-3.33,1.97-3.94-.03-7.88,0-11.82,0,0,.05,0,.1,0,.16Z"/>
    <path class="cls-1" d="m1566.53,717.58c3.51,0,7.01,0,10.52,0,3.22,0,4.05,1.14,2.87,3.99-4.98,11.98-9.51,24.12-14.11,36.25-2.39,6.28-4.27,12.78-7.41,18.79-1.08,2.06-2.34,2.97-4.56,2.96-5.91-.04-11.83.02-17.74-.01-3.95-.02-6.06-2.73-4.93-6.5,2.16-7.21,4.97-14.18,7.9-21.11,1.19-2.81,2.09-5.72,3.27-8.55,3.05-7.33,5.79-14.79,8.47-22.27.89-2.47,2.41-3.49,4.89-3.48,3.61.02,7.23,0,10.84,0,0-.02,0-.05,0-.07Z"/>
    <path class="cls-1" d="m1600.16,703.24c-12.26,0-24.53,0-36.79,0-3.96,0-5.33-1.8-3.78-5.41,2.11-4.92,3.83-9.97,5.59-15.02.83-2.37,2.38-3.45,4.95-3.42,8,.09,15.99.07,23.99.06,2.12,0,4.04.56,6,1.42,5.46,2.39,11.28,4.09,16.44,6.97,5.48,3.05,11.33,5.47,16.4,9.28,1.83,1.38,3.82,2.54,5.72,3.81.54.36,1.24.78,1.11,1.49-.17.92-1.09,1.04-1.84,1.03-2.19-.02-4.38-.19-6.57-.19-10.41-.02-20.82-.01-31.22-.01Z"/>
    <path class="cls-1" d="m1694.45,703.4c-3.83,0-7.66,0-11.48,0-2.15,0-3.76-.79-2.61-3.12,2.96-6,3.96-12.73,7.31-18.59.89-1.56,1.77-2.29,3.51-2.28,7.66.05,15.32.08,22.98,0,2.67-.03,3.42,1.12,2.53,3.46-2.25,5.93-4.6,11.81-6.86,17.74-.76,2.01-1.97,2.89-4.22,2.78-3.71-.18-7.44-.05-11.16-.05,0,.02,0,.04,0,.06Z"/>
    <path class="cls-1" d="m1531.69,679.58c3.83,0,7.66-.02,11.49,0,2.52.01,3.58.59,2.24,3.51-2.35,5.15-4.28,10.49-6.2,15.82-.94,2.6-2.57,4.12-5.25,4.17-6.89.12-13.79.18-20.68.08-3.1-.05-4.24-1.51-3.2-4.55,1.99-5.78,4.37-11.42,6.63-17.1.67-1.69,2.14-1.97,3.79-1.94,3.72.06,7.44.02,11.16.02,0,0,0,0,0-.01Z"/>
    <path class="cls-1" d="m1033.32,754.01c-4.75-.51-8.67.09-12.6.27-2.41.11-3.11-.73-2.12-3.2,2.33-5.78,5.14-11.39,6.68-17.48.55-2.2,2.09-2.97,4.14-2.98,6.1,0,12.2.05,18.3.06,11.07.01,22.13-.11,33.2.05,5.47.08,10.87.04,16.21-1.34,4.65-1.2,8.36-3.65,10.92-7.68,1.6-2.52,3.48-3.84,6.68-3.7,6.01.26,12.04.05,18.06.1,3.49.03,4.24.93,3.15,4.19-1.62,4.84-5.51,8.05-8.89,11.56-6.24,6.47-14,10.85-21.9,14.8-3.47,1.73-7.14,3.7-11.36,3.78-2.06.04-4.32.65-5.13,2.91-.78,2.19.56,3.8,1.85,5.59,2.6,3.61,5.03,7.39,7.03,11.36,1.74,3.48-.08,6.52-4.01,6.71-7.18.35-14.37.33-21.56.32-2.95,0-3.78-2.88-5.01-4.74-3.61-5.52-6.87-11.26-10.22-16.95-1.87-3.18-4.29-3.97-7.94-3.73-5.4.35-10.85.09-15.48.09Z"/>
  </g>
</svg>